<?xml version="1.0" encoding="UTF-8"?>
<svg width="14px" height="14px" viewBox="0 0 14 14" version="1.1" xmlns="http://www.w3.org/2000/svg" xmlns:xlink="http://www.w3.org/1999/xlink">
    <!-- Generator: sketchtool 52.6 (67491) - http://www.bohemiancoding.com/sketch -->
    <title>8F00630E-51BE-4A2A-81E6-F737E969FEEB</title>
    <desc>Created with sketchtool.</desc>
    <g id="Page-1" stroke="none" stroke-width="1" fill="none" fill-rule="evenodd">
        <g id="Organogram-Copy" transform="translate(-602.000000, -148.000000)" fill="#B4B6BB">
            <path d="M615.072497,160.418155 L612.853497,158.178155 C613.780034,157.122916 614.292382,155.767431 614.295497,154.363155 C614.382524,151.857999 612.940299,149.550749 610.650214,148.531488 C608.36013,147.512227 605.680593,147.98498 603.877576,149.72639 C602.074559,151.467801 601.508972,154.12929 602.448033,156.453413 C603.387094,158.777535 605.642829,160.29907 608.149497,160.299155 C609.405089,160.303597 610.632606,159.927777 611.670497,159.221155 L613.917497,161.489155 C614.229163,161.798037 614.728608,161.807286 615.051497,161.510155 C615.205019,161.371502 615.29436,161.175528 615.298337,160.9687 C615.302315,160.761872 615.220574,160.562608 615.072497,160.418155 Z M608.313131,149.655785 C610.804198,149.741617 612.762525,151.816195 612.705273,154.308653 C612.648021,156.801112 610.596504,158.78354 608.104125,158.75485 C605.611745,158.72616 603.606385,156.697032 603.606497,154.203916 C603.652956,151.649029 605.758747,149.614154 608.313131,149.655785 Z" id="Forma_1"></path>
        </g>
    </g>
</svg>