<?xml version="1.0" encoding="UTF-8"?>
<svg width="13px" height="15px" viewBox="0 0 13 15" version="1.1" xmlns="http://www.w3.org/2000/svg" xmlns:xlink="http://www.w3.org/1999/xlink">
    <!-- Generator: sketchtool 52.6 (67491) - http://www.bohemiancoding.com/sketch -->
    <title>B26D2E3A-F3EF-49BA-AA23-5B429E22B4F4</title>
    <desc>Created with sketchtool.</desc>
    <g id="Page-1" stroke="none" stroke-width="1" fill="none" fill-rule="evenodd">
        <g id="Organogram-Edit-position-0" transform="translate(-1275.000000, -687.000000)" fill="#2E2E39">
            <path d="M1279.04687,695.62501 L1277.95312,695.62501 C1277.77266,695.62501 1277.62499,695.477344 1277.62499,695.296886 L1277.62499,694.203139 C1277.62499,694.022681 1277.77266,693.875015 1277.95312,693.875015 L1279.04687,693.875015 C1279.22732,693.875015 1279.37499,694.022681 1279.37499,694.203139 L1279.37499,695.296886 C1279.37499,695.477344 1279.22732,695.62501 1279.04687,695.62501 Z M1281.99998,695.296886 C1281.99998,695.477344 1281.85232,695.62501 1281.67186,695.62501 L1280.57811,695.62501 C1280.39765,695.62501 1280.24999,695.477344 1280.24999,695.296886 L1280.24999,694.203139 C1280.24999,694.022681 1280.39765,693.875015 1280.57811,693.875015 L1281.67186,693.875015 C1281.85232,693.875015 1281.99998,694.022681 1281.99998,694.203139 L1281.99998,695.296886 Z M1284.62498,695.296886 C1284.62498,695.477344 1284.47731,695.62501 1284.29685,695.62501 L1283.20311,695.62501 C1283.02265,695.62501 1282.87498,695.477344 1282.87498,695.296886 L1282.87498,694.203139 C1282.87498,694.022681 1283.02265,693.875015 1283.20311,693.875015 L1284.29685,693.875015 C1284.47731,693.875015 1284.62498,694.022681 1284.62498,694.203139 L1284.62498,695.296886 Z M1281.99998,697.92188 C1281.99998,698.102338 1281.85232,698.250004 1281.67186,698.250004 L1280.57811,698.250004 C1280.39765,698.250004 1280.24999,698.102338 1280.24999,697.92188 L1280.24999,696.828133 C1280.24999,696.647675 1280.39765,696.500008 1280.57811,696.500008 L1281.67186,696.500008 C1281.85232,696.500008 1281.99998,696.647675 1281.99998,696.828133 L1281.99998,697.92188 Z M1279.37499,697.92188 C1279.37499,698.102338 1279.22732,698.250004 1279.04687,698.250004 L1277.95312,698.250004 C1277.77266,698.250004 1277.62499,698.102338 1277.62499,697.92188 L1277.62499,696.828133 C1277.62499,696.647675 1277.77266,696.500008 1277.95312,696.500008 L1279.04687,696.500008 C1279.22732,696.500008 1279.37499,696.647675 1279.37499,696.828133 L1279.37499,697.92188 Z M1284.62498,697.92188 C1284.62498,698.102338 1284.47731,698.250004 1284.29685,698.250004 L1283.20311,698.250004 C1283.02265,698.250004 1282.87498,698.102338 1282.87498,697.92188 L1282.87498,696.828133 C1282.87498,696.647675 1283.02265,696.500008 1283.20311,696.500008 L1284.29685,696.500008 C1284.47731,696.500008 1284.62498,696.647675 1284.62498,696.828133 L1284.62498,697.92188 Z M1287.24997,690.812522 L1287.24997,700.437499 C1287.24997,701.162107 1286.66208,701.749996 1285.93747,701.749996 L1276.3125,701.749996 C1275.58789,701.749996 1275,701.162107 1275,700.437499 L1275,690.812522 C1275,690.087914 1275.58789,689.500025 1276.3125,689.500025 L1277.62499,689.500025 L1277.62499,688.078153 C1277.62499,687.897696 1277.77266,687.750029 1277.95312,687.750029 L1279.04687,687.750029 C1279.22732,687.750029 1279.37499,687.897696 1279.37499,688.078153 L1279.37499,689.500025 L1282.87498,689.500025 L1282.87498,688.078153 C1282.87498,687.897696 1283.02265,687.750029 1283.20311,687.750029 L1284.29685,687.750029 C1284.47731,687.750029 1284.62498,687.897696 1284.62498,688.078153 L1284.62498,689.500025 L1285.93747,689.500025 C1286.66208,689.500025 1287.24997,690.087914 1287.24997,690.812522 Z M1285.93747,700.273437 L1285.93747,692.125019 L1276.3125,692.125019 L1276.3125,700.273437 C1276.3125,700.363666 1276.38633,700.437499 1276.47656,700.437499 L1285.77341,700.437499 C1285.86364,700.437499 1285.93747,700.363666 1285.93747,700.273437 Z" id="calendar-alt"></path>
        </g>
    </g>
</svg>